<svg width="18" height="19" viewBox="0 0 18 19" fill="none" xmlns="http://www.w3.org/2000/svg">
<path d="M12.75 8.38281V2.38281H5.25V5.38281H2.25V15.8828H8.25V12.8828H9.75V15.8828H15.75V8.38281H12.75ZM5.25 14.3828H3.75V12.8828H5.25V14.3828ZM5.25 11.3828H3.75V9.88281H5.25V11.3828ZM5.25 8.38281H3.75V6.88281H5.25V8.38281ZM8.25 11.3828H6.75V9.88281H8.25V11.3828ZM8.25 8.38281H6.75V6.88281H8.25V8.38281ZM8.25 5.38281H6.75V3.88281H8.25V5.38281ZM11.25 11.3828H9.75V9.88281H11.25V11.3828ZM11.25 8.38281H9.75V6.88281H11.25V8.38281ZM11.25 5.38281H9.75V3.88281H11.25V5.38281ZM14.25 14.3828H12.75V12.8828H14.25V14.3828ZM14.25 11.3828H12.75V9.88281H14.25V11.3828Z" fill="#6B7280"/>
</svg>
