<svg width="23" height="23" viewBox="0 0 23 23" fill="none" xmlns="http://www.w3.org/2000/svg">
<g clip-path="url(#clip0_2718_5987)">
<path d="M6.10091 9.29443H4.26758V15.7111H6.10091V9.29443Z" fill="#1C64F2"/>
<path d="M11.6009 9.29443H9.76758V15.7111H11.6009V9.29443Z" fill="#1C64F2"/>
<path d="M19.8509 5.62777L10.6842 1.04443L1.51758 5.62777V7.4611H19.8509V5.62777ZM5.61508 5.62777L10.6842 3.09777L15.7534 5.62777H5.61508Z" fill="#1C64F2"/>
<path d="M1.51758 17.5444V19.3778H12.8842C12.6917 18.7911 12.5909 18.1769 12.5542 17.5444H1.51758Z" fill="#1C64F2"/>
<path d="M17.1009 11.3661V9.29443H15.2676V12.2828L17.1009 11.3661Z" fill="#1C64F2"/>
<path d="M18.0176 12.9611L14.3509 14.7944V17.1319C14.3509 19.4419 15.9184 21.6053 18.0176 22.1278C20.1167 21.6053 21.6842 19.4419 21.6842 17.1319V14.7944L18.0176 12.9611ZM17.3576 19.3778L15.4967 17.5169L16.4684 16.5453L17.3576 17.4344L19.5667 15.2528L20.5384 16.2244L17.3576 19.3778Z" fill="#1C64F2"/>
</g>
<defs>
<clipPath id="clip0_2718_5987">
<rect width="22" height="22" fill="white" transform="translate(0.601562 0.585938)"/>
</clipPath>
</defs>
</svg>
