<svg width="24" height="24" viewBox="0 0 24 24" fill="none" xmlns="http://www.w3.org/2000/svg">
<path d="M11.9883 15C11.8608 15 11.7412 14.9809 11.6295 14.9427C11.5179 14.9046 11.4178 14.8473 11.3292 14.771L6.2886 10.4276C6.08772 10.2545 5.9917 10.0573 6.00056 9.83588C6.00942 9.6145 6.1113 9.41985 6.30619 9.25191C6.50109 9.08397 6.72699 9 6.9839 9C7.24081 9 7.46672 9.08397 7.66161 9.25191L11.9936 13.0076L16.3522 9.25191C16.5471 9.08397 16.773 9.00382 17.0299 9.01145C17.2869 9.01908 17.5128 9.10687 17.7077 9.27481C17.9026 9.44275 18 9.6374 18 9.85878C18 10.0802 17.8996 10.277 17.6987 10.4492L12.6581 14.771C12.5624 14.8473 12.4587 14.9046 12.3471 14.9427C12.2355 14.9809 12.1159 15 11.9883 15Z" fill="#6B7280"/>
</svg>
