<svg width="17" height="17" viewBox="0 0 17 17" fill="none" xmlns="http://www.w3.org/2000/svg">
<path fill-rule="evenodd" clip-rule="evenodd" d="M9.25 3.26172C9.25 2.85172 8.91 2.51172 8.5 2.51172C8.09 2.51172 7.75 2.85172 7.75 3.26172V7.76172H3.25C2.84 7.76172 2.5 8.10172 2.5 8.51172C2.5 8.92172 2.84 9.26172 3.25 9.26172H7.75V13.7617C7.75 14.1717 8.09 14.5117 8.5 14.5117C8.91 14.5117 9.25 14.1717 9.25 13.7617V9.26172H13.75C14.16 9.26172 14.5 8.92172 14.5 8.51172C14.5 8.10172 14.16 7.76172 13.75 7.76172H9.25V3.26172Z" fill="#6B7280"/>
</svg>
