<svg width="24" height="24" viewBox="0 0 24 24" fill="none" xmlns="http://www.w3.org/2000/svg">
<path d="M16 12.0117C16 12.1392 15.9777 12.2588 15.9332 12.3705C15.8887 12.4821 15.8219 12.5822 15.7328 12.6708L10.6655 17.7114C10.4636 17.9123 10.2335 18.0083 9.97519 17.9994C9.71692 17.9906 9.48982 17.8887 9.29389 17.6938C9.09796 17.4989 9 17.273 9 17.0161C9 16.7592 9.09796 16.5333 9.29389 16.3384L13.6756 12.0064L9.29389 7.64776C9.09796 7.45287 9.00445 7.22696 9.01336 6.97005C9.02226 6.71315 9.12468 6.48724 9.32061 6.29235C9.51654 6.09745 9.74364 6 10.0019 6C10.2602 6 10.4898 6.10044 10.6907 6.30133L15.7328 11.3419C15.8219 11.4376 15.8887 11.5413 15.9332 11.6529C15.9777 11.7645 16 11.8841 16 12.0117Z" fill="#9CA3AF"/>
</svg>
