<svg width="25" height="25" viewBox="0 0 25 25" fill="none" xmlns="http://www.w3.org/2000/svg">
<mask id="mask0_2776_10082" style="mask-type:alpha" maskUnits="userSpaceOnUse" x="2" y="2" width="21" height="21">
<rect x="2.59863" y="2.66309" width="20" height="20" fill="#D9D9D9"/>
</mask>
<g mask="url(#mask0_2776_10082)">
<path d="M5.48752 18.8853C5.23567 18.8853 5.02456 18.8001 4.85419 18.6298C4.68382 18.4594 4.59863 18.2483 4.59863 17.9964C4.59863 17.7446 4.68382 17.5335 4.85419 17.3631C5.02456 17.1927 5.23567 17.1075 5.48752 17.1075H9.04308C9.29493 17.1075 9.50604 17.1927 9.67641 17.3631C9.84678 17.5335 9.93197 17.7446 9.93197 17.9964C9.93197 18.2483 9.84678 18.4594 9.67641 18.6298C9.50604 18.8001 9.29493 18.8853 9.04308 18.8853H5.48752ZM5.48752 8.21864C5.23567 8.21864 5.02456 8.13346 4.85419 7.96309C4.68382 7.79272 4.59863 7.5816 4.59863 7.32975C4.59863 7.0779 4.68382 6.86679 4.85419 6.69642C5.02456 6.52605 5.23567 6.44086 5.48752 6.44086H12.5986C12.8505 6.44086 13.0616 6.52605 13.232 6.69642C13.4023 6.86679 13.4875 7.0779 13.4875 7.32975C13.4875 7.5816 13.4023 7.79272 13.232 7.96309C13.0616 8.13346 12.8505 8.21864 12.5986 8.21864H5.48752ZM12.5986 20.6631C12.3468 20.6631 12.1357 20.5779 11.9653 20.4075C11.7949 20.2372 11.7097 20.026 11.7097 19.7742V16.2186C11.7097 15.9668 11.7949 15.7557 11.9653 15.5853C12.1357 15.4149 12.3468 15.3298 12.5986 15.3298C12.8505 15.3298 13.0616 15.4149 13.232 15.5853C13.4023 15.7557 13.4875 15.9668 13.4875 16.2186V17.1075H19.7097C19.9616 17.1075 20.1727 17.1927 20.3431 17.3631C20.5134 17.5335 20.5986 17.7446 20.5986 17.9964C20.5986 18.2483 20.5134 18.4594 20.3431 18.6298C20.1727 18.8001 19.9616 18.8853 19.7097 18.8853H13.4875V19.7742C13.4875 20.026 13.4023 20.2372 13.232 20.4075C13.0616 20.5779 12.8505 20.6631 12.5986 20.6631ZM9.04308 15.3298C8.79123 15.3298 8.58011 15.2446 8.40974 15.0742C8.23937 14.9038 8.15419 14.6927 8.15419 14.4409V13.552H5.48752C5.23567 13.552 5.02456 13.4668 4.85419 13.2964C4.68382 13.126 4.59863 12.9149 4.59863 12.6631C4.59863 12.4112 4.68382 12.2001 4.85419 12.0298C5.02456 11.8594 5.23567 11.7742 5.48752 11.7742H8.15419V10.8853C8.15419 10.6335 8.23937 10.4223 8.40974 10.252C8.58011 10.0816 8.79123 9.99642 9.04308 9.99642C9.29493 9.99642 9.50604 10.0816 9.67641 10.252C9.84678 10.4223 9.93197 10.6335 9.93197 10.8853V14.4409C9.93197 14.6927 9.84678 14.9038 9.67641 15.0742C9.50604 15.2446 9.29493 15.3298 9.04308 15.3298ZM12.5986 13.552C12.3468 13.552 12.1357 13.4668 11.9653 13.2964C11.7949 13.126 11.7097 12.9149 11.7097 12.6631C11.7097 12.4112 11.7949 12.2001 11.9653 12.0298C12.1357 11.8594 12.3468 11.7742 12.5986 11.7742H19.7097C19.9616 11.7742 20.1727 11.8594 20.3431 12.0298C20.5134 12.2001 20.5986 12.4112 20.5986 12.6631C20.5986 12.9149 20.5134 13.126 20.3431 13.2964C20.1727 13.4668 19.9616 13.552 19.7097 13.552H12.5986ZM16.1542 9.99642C15.9023 9.99642 15.6912 9.91123 15.5209 9.74086C15.3505 9.57049 15.2653 9.35938 15.2653 9.10753V5.55197C15.2653 5.30012 15.3505 5.08901 15.5209 4.91864C15.6912 4.74827 15.9023 4.66309 16.1542 4.66309C16.406 4.66309 16.6172 4.74827 16.7875 4.91864C16.9579 5.08901 17.0431 5.30012 17.0431 5.55197V6.44086H19.7097C19.9616 6.44086 20.1727 6.52605 20.3431 6.69642C20.5134 6.86679 20.5986 7.0779 20.5986 7.32975C20.5986 7.5816 20.5134 7.79272 20.3431 7.96309C20.1727 8.13346 19.9616 8.21864 19.7097 8.21864H17.0431V9.10753C17.0431 9.35938 16.9579 9.57049 16.7875 9.74086C16.6172 9.91123 16.406 9.99642 16.1542 9.99642Z" fill="#374151"/>
</g>
</svg>
