<svg width="23" height="23" viewBox="0 0 23 23" fill="none" xmlns="http://www.w3.org/2000/svg">
<path d="M10.2259 11.3568C12.2517 11.3568 13.8926 9.71594 13.8926 7.6901C13.8926 5.66427 12.2517 4.02344 10.2259 4.02344C8.20008 4.02344 6.55925 5.66427 6.55925 7.6901C6.55925 9.71594 8.20008 11.3568 10.2259 11.3568ZM10.2259 5.85677C11.2342 5.85677 12.0592 6.68177 12.0592 7.6901C12.0592 8.69844 11.2342 9.52344 10.2259 9.52344C9.21758 9.52344 8.39258 8.69844 8.39258 7.6901C8.39258 6.68177 9.21758 5.85677 10.2259 5.85677ZM4.72591 16.8568C4.90925 16.2793 7.08175 15.3168 9.27258 15.0784L11.1426 13.2451C10.7851 13.2084 10.5192 13.1901 10.2259 13.1901C7.77841 13.1901 2.89258 14.4184 2.89258 16.8568V18.6901H11.1426L9.30925 16.8568H4.72591ZM19.0259 11.8151L14.3234 16.5543L12.4259 14.6476L11.1426 15.9401L14.3234 19.1484L20.3092 13.1076L19.0259 11.8151Z" fill="#1C64F2"/>
</svg>
