<svg width="19" height="19" viewBox="0 0 19 19" fill="none" xmlns="http://www.w3.org/2000/svg">
<path d="M11.8516 2.10156H7.35156V3.60156H11.8516V2.10156ZM8.85156 11.8516H10.3516V7.35156H8.85156V11.8516ZM14.8741 6.89406L15.9391 5.82906C15.6166 5.44656 15.2641 5.08656 14.8816 4.77156L13.8166 5.83656C12.6541 4.90656 11.1916 4.35156 9.60156 4.35156C5.87406 4.35156 2.85156 7.37406 2.85156 11.1016C2.85156 14.8291 5.86656 17.8516 9.60156 17.8516C13.3366 17.8516 16.3516 14.8291 16.3516 11.1016C16.3516 9.51156 15.7966 8.04906 14.8741 6.89406ZM9.60156 16.3516C6.69906 16.3516 4.35156 14.0041 4.35156 11.1016C4.35156 8.19906 6.69906 5.85156 9.60156 5.85156C12.5041 5.85156 14.8516 8.19906 14.8516 11.1016C14.8516 14.0041 12.5041 16.3516 9.60156 16.3516Z" fill="#6B7280"/>
</svg>
