<svg width="48" height="48" viewBox="0 0 48 48" fill="none" xmlns="http://www.w3.org/2000/svg">
<circle cx="24" cy="24" r="24" fill="#E5E7EB"/>
<path d="M24.4051 20.7939C25.535 20.7939 26.4509 19.8779 26.4509 18.748C26.4509 17.6181 25.535 16.7021 24.4051 16.7021C23.2752 16.7021 22.3592 17.6181 22.3592 18.748C22.3592 19.8779 23.2752 20.7939 24.4051 20.7939Z" fill="#D1D5DB"/>
<path d="M20.4185 22.6208H16.5463V29.3907H20.4185V22.6208Z" fill="#D1D5DB"/>
<path d="M26.4421 22.6208H22.5698V29.3907H26.4421V22.6208Z" fill="#D1D5DB"/>
<path d="M32.0265 22.6208H28.1543V29.3907H32.0265V22.6208Z" fill="#D1D5DB"/>
<path d="M33.1066 28.6702H15.6947C14.7639 28.6702 14 29.4341 14 30.3648V33.2712C14 33.6751 14.3249 34 14.7288 34H34.0812C34.4851 34 34.81 33.6751 34.81 33.2712V30.3648C34.81 29.4341 34.0461 28.6702 33.1153 28.6702H33.1066Z" fill="#9CA3AF"/>
<path d="M33.4665 17.5364L24.7561 14.0592C24.563 13.9802 24.2293 13.9802 24.0361 14.0592L15.3346 17.5364C14.9921 17.6681 14.7287 18.072 14.7287 18.432V21.6457C14.7287 22.1813 15.1677 22.6115 15.6946 22.6115H33.1065C33.6421 22.6115 34.0723 22.1725 34.0723 21.6457V18.432C34.0723 18.0632 33.8001 17.6681 33.4665 17.5364ZM24.4049 20.1969C23.6059 20.1969 22.9561 19.5471 22.9561 18.7481C22.9561 17.949 23.6059 17.2993 24.4049 17.2993C25.2039 17.2993 25.8537 17.949 25.8537 18.7481C25.8537 19.5471 25.2039 20.1969 24.4049 20.1969Z" fill="#9CA3AF"/>
</svg>
