<svg width="101" height="160" viewBox="0 0 101 160" fill="none" xmlns="http://www.w3.org/2000/svg">
<rect x="0.901367" width="100" height="160" rx="4" fill="#E5E7EB"/>
<path d="M74.9014 37.9825L74.9014 19.2625C74.9014 17.4607 73.4002 16 71.5485 16L62.2549 16C60.4031 16 58.902 17.4607 58.902 19.2625L58.902 37.9825C58.902 39.7843 60.4031 41.245 62.2549 41.245L71.5485 41.245C73.4002 41.245 74.9014 39.7843 74.9014 37.9825Z" fill="#D1D5DB"/>
<path d="M61.5312 28.6223C61.5312 27.0069 62.8821 25.6924 64.5423 25.6924C65.47 25.6924 66.3327 26.1042 66.9023 26.8089C67.472 26.1042 68.3346 25.6924 69.2624 25.6924C70.9225 25.6924 72.2734 27.0069 72.2734 28.6223C72.2734 30.2377 70.9225 31.5523 69.2624 31.5523C68.3346 31.5523 67.472 31.1405 66.9023 30.4357C66.3327 31.1405 65.47 31.5523 64.5423 31.5523C62.8821 31.5523 61.5312 30.2377 61.5312 28.6223ZM71.8747 28.6223C71.8747 27.2207 70.7028 26.0883 69.2705 26.0883C68.3835 26.0883 67.5697 26.5239 67.0814 27.2524L66.9105 27.5137L66.7396 27.2524C66.2513 26.5239 65.4375 26.0883 64.5504 26.0883C63.11 26.0883 61.9463 27.2286 61.9463 28.6223C61.9463 30.016 63.1181 31.1563 64.5504 31.1563C65.4375 31.1563 66.2513 30.7208 66.7396 29.9923L66.9105 29.7309L67.0814 29.9923C67.5697 30.7208 68.3835 31.1563 69.2705 31.1563C70.7109 31.1563 71.8747 30.016 71.8747 28.6223Z" fill="#9CA3AF"/>
<path d="M70.4531 26.0647L70.4531 16L70.0462 16L70.0462 26.0647L70.4531 26.0647Z" fill="#9CA3AF"/>
<path d="M70.4531 41.245L70.4531 31.3545L70.0462 31.3545L70.0462 41.245L70.4531 41.245Z" fill="#9CA3AF"/>
<path d="M63.8379 26.0647L63.8379 16L63.431 16L63.431 26.0647L63.8379 26.0647Z" fill="#9CA3AF"/>
<path d="M63.8379 41.245L63.8379 31.3545L63.431 31.3545L63.431 41.245L63.8379 41.245Z" fill="#9CA3AF"/>
<path d="M74.9023 21.2358L74.9023 20.8398L58.903 20.8398L58.903 21.2358L74.9023 21.2358Z" fill="#9CA3AF"/>
<path d="M70.248 35.0434L70.248 34.6475L63.6318 34.6475L63.6318 35.0434L70.248 35.0434Z" fill="#9CA3AF"/>
<path d="M74.9023 37.3745L74.9023 36.9785L70.2474 36.9785L70.2474 37.3745L74.9023 37.3745Z" fill="#9CA3AF"/>
<path d="M63.6328 37.3745L63.6328 36.9785L58.9046 36.9785L58.9046 37.3745L63.6328 37.3745Z" fill="#9CA3AF"/>
<path opacity="0.6" d="M52.9014 9L51.0678 6.24962C50.9886 6.13087 50.8141 6.13087 50.735 6.24961L48.9014 9" stroke="#9CA3AF" stroke-linecap="round"/>
<g opacity="0.6">
<path d="M61.421 134.022H60.0029V141.055H61.421V134.022Z" fill="#9CA3AF"/>
<path d="M28.7614 140.915H24.4454C23.5514 140.915 22.8115 140.157 22.8115 139.216V134.001H24.2296V139.216C24.2296 139.344 24.3221 139.441 24.4454 139.441H28.7614V140.915Z" fill="#9CA3AF"/>
<path d="M21.2148 134.075C20.927 133.968 20.6085 134.075 20.4235 134.332L18.7177 136.683V134.043H12.9014V139.216C12.9014 140.146 13.631 140.915 14.5353 140.915H18.7279V139.141L20.2899 136.982V140.915H21.708V134.781C21.708 134.46 21.5128 134.182 21.2251 134.086L21.2148 134.075ZM17.3098 139.44H14.5353C14.412 139.44 14.3195 139.344 14.3195 139.216V135.518H17.3098V139.451V139.44Z" fill="#9CA3AF"/>
<path d="M48.3478 141.044H44.0626C43.1686 141.044 42.4287 140.285 42.4287 139.344V136.619H46.8166V135.476H42.4801V134.001H48.2245V138.083H43.8365V139.334C43.8365 139.462 43.929 139.558 44.0523 139.558H48.3375V141.033L48.3478 141.044Z" fill="#9CA3AF"/>
<path d="M50.8703 134.022H49.4521V141.055H50.8703V134.022Z" fill="#9CA3AF"/>
<path d="M31.2824 134.001H29.8643V140.915H31.2824V134.001Z" fill="#9CA3AF"/>
<path d="M38.3151 140.916V134.022H36.897V136.021H33.8039V134.022H32.3857V139.216C32.3857 140.146 33.1153 140.916 34.0197 140.916H38.3151ZM33.8039 139.216V137.485H36.897V139.441H34.0197C33.8963 139.441 33.8039 139.345 33.8039 139.216Z" fill="#9CA3AF"/>
<path d="M34.9337 146.526C34.8721 146.526 34.8207 146.473 34.8207 146.409V145.543H41.2535V134.022H39.8354V141.749H33.2998V143.224H39.8354V144.079H33.4026V146.419C33.4026 147.296 34.0808 148.001 34.9234 148.001H41.3255V146.526H34.9234H34.9337Z" fill="#9CA3AF"/>
<path d="M56.2074 137.389V135.487H58.8381V134.022H52.1586V135.487H54.7893V137.389L51.9736 140.264L52.9601 141.311L55.4881 138.735L57.8927 141.3L58.8998 140.274L56.2074 137.389Z" fill="#9CA3AF"/>
</g>
</svg>
