<svg width="28" height="28" viewBox="0 0 28 28" fill="none" xmlns="http://www.w3.org/2000/svg">
<path fill-rule="evenodd" clip-rule="evenodd" d="M7.38474 1.55256C6.69451 1.89721 6.18031 2.49019 5.93729 3.22223L1.31614 17.1106C1.07128 17.8404 1.12857 18.6258 1.47599 19.319C1.82134 20.0044 2.41477 20.52 3.14427 20.7639L18.299 25.8519C19.0338 26.0958 19.8183 26.0402 20.5076 25.6941C21.1976 25.3456 21.713 24.7558 21.953 24.0217L26.5762 10.1374C27.0823 8.62509 26.2593 6.98407 24.7469 6.48025L9.59356 1.39363C8.85736 1.15085 8.07797 1.20375 7.38474 1.55256Z" fill="#FEFEFE"/>
<path fill-rule="evenodd" clip-rule="evenodd" d="M7.66901 17.6704H8.71336V10.4558H7.66901V17.6704ZM14.7926 14.8909C13.9695 15.8094 12.9432 16.5504 11.7535 17.0099L11.0695 17.2748V10.8401L11.7452 11.1018C12.9365 11.5567 13.9653 12.2979 14.7926 13.212C15.3814 12.2645 15.747 11.1651 15.8221 9.96947C16.0092 6.8847 14.0771 4.05402 11.4232 3.06881L9.23377 2.34023C8.24578 2.01106 7.19404 2.55599 6.8681 3.5412L2.23378 17.4375C1.9046 18.4266 2.459 19.4996 3.44814 19.8249L13.9653 23.3363C15.0376 22.1961 15.7332 20.6853 15.8348 19.0002C15.9277 17.4966 15.5357 16.079 14.7926 14.8909Z" fill="#198FCA"/>
<path fill-rule="evenodd" clip-rule="evenodd" d="M14.186 14.0508C13.5988 13.3624 12.8889 12.784 12.0693 12.3604V15.7514C12.8889 15.3269 13.6027 14.7415 14.186 14.0508Z" fill="#E95705"/>
<path fill-rule="evenodd" clip-rule="evenodd" d="M21.8535 17.6462L20.5497 17.6499L17.8676 14.0419L20.592 10.4351L21.9071 10.43L19.1764 14.0472L21.8535 17.6462ZM24.4104 7.40612L14.7588 4.18066C16.0552 5.5997 16.8484 7.48512 16.8521 9.55003C16.8542 11.1823 16.3453 12.7436 15.4596 14.0504C16.3485 15.3532 16.8604 16.9134 16.8648 18.5456C16.8655 20.4953 16.1649 22.2915 14.9983 23.6824L18.623 24.8921C19.6142 25.2218 20.6606 24.6768 20.9902 23.6886L25.6269 9.79373C25.9551 8.80621 25.4003 7.73414 24.4104 7.40612Z" fill="#015198"/>
</svg>
