<svg width="28" height="28" viewBox="0 0 28 28" fill="none" xmlns="http://www.w3.org/2000/svg">
<path fill-rule="evenodd" clip-rule="evenodd" d="M1.1665 26.8226H26.8239V1.16602H1.1665V26.8226Z" fill="#0090D0"/>
<path fill-rule="evenodd" clip-rule="evenodd" d="M1.1665 1.16602L7.57897 7.58298L13.9944 1.16602H1.1665Z" fill="#0090D0"/>
<path fill-rule="evenodd" clip-rule="evenodd" d="M1.1665 1.16602V13.9939L7.57897 7.58298L1.1665 1.16602Z" fill="#0099D7"/>
<path fill-rule="evenodd" clip-rule="evenodd" d="M1.16748 13.9938H13.9947L7.58369 7.5791L1.16748 13.9938Z" fill="#0090D0"/>
<path fill-rule="evenodd" clip-rule="evenodd" d="M13.9952 1.16602L7.5835 7.57848L13.9952 13.9939V1.16602Z" fill="#0082C8"/>
<path fill-rule="evenodd" clip-rule="evenodd" d="M13.9951 1.16602V13.9939L20.4076 7.58298L13.9951 1.16602Z" fill="#0070BA"/>
<path fill-rule="evenodd" clip-rule="evenodd" d="M13.9956 13.9938H26.8235L20.4118 7.5791L13.9956 13.9938Z" fill="#004C97"/>
<path fill-rule="evenodd" clip-rule="evenodd" d="M1.1665 13.9941L7.57897 20.4111L13.9944 13.9941H1.1665Z" fill="#0082C8"/>
<path fill-rule="evenodd" clip-rule="evenodd" d="M1.1665 26.8228L7.57897 20.4104L1.1665 13.9941V26.8228Z" fill="#0070BA"/>
<path fill-rule="evenodd" clip-rule="evenodd" d="M1.16748 26.8222H13.9947L7.58369 20.4053L1.16748 26.8222Z" fill="#0066B2"/>
<path fill-rule="evenodd" clip-rule="evenodd" d="M7.5835 20.4061L13.9952 26.823V13.9951L7.5835 20.4061Z" fill="#00519B"/>
<path fill-rule="evenodd" clip-rule="evenodd" d="M13.9951 13.9941L20.4076 20.4111L26.823 13.9941H13.9951Z" fill="#1B3281"/>
<path fill-rule="evenodd" clip-rule="evenodd" d="M13.9951 26.8228L20.4076 20.4104L13.9951 13.9941V26.8228Z" fill="#004C97"/>
<path fill-rule="evenodd" clip-rule="evenodd" d="M13.9956 26.8222H26.8235L20.4118 20.4053L13.9956 26.8222Z" fill="#1B3281"/>
<path fill-rule="evenodd" clip-rule="evenodd" d="M20.4116 20.4061L26.8241 26.823V13.9951L20.4116 20.4061Z" fill="#1B3281"/>
<path fill-rule="evenodd" clip-rule="evenodd" d="M13.9951 1.16602L20.4076 7.58298L26.823 1.16602H13.9951Z" fill="#0066B2"/>
<path fill-rule="evenodd" clip-rule="evenodd" d="M26.8236 1.16602L20.4111 7.57848L26.8236 13.9939V1.16602Z" fill="#00519B"/>
<path fill-rule="evenodd" clip-rule="evenodd" d="M6.14307 21.8773L10.6914 26.4248L18.609 18.6257L26.8234 26.7951V17.2045L18.609 9.37988L6.14307 21.8773Z" fill="#FEFEFE"/>
</svg>
