<svg width="28" height="28" viewBox="0 0 28 28" fill="none" xmlns="http://www.w3.org/2000/svg">
<path fill-rule="evenodd" clip-rule="evenodd" d="M13.574 3.30858L8.13713 0.405273L13.5005 10.6785L18.8639 0.479717L13.574 3.30858ZM17.6889 4.12665L24.5952 1.29779V6.43441L20.6277 8.22107C22.9788 10.1566 24.5217 13.0599 24.5217 16.261C24.5217 22.0676 19.5257 26.832 13.4276 26.832C7.25605 26.832 2.3335 22.1421 2.3335 16.261C2.3335 12.9855 3.87638 10.0822 6.3744 8.07218L2.40697 6.28553V1.1489L9.23976 4.05221L10.3418 6.06219L12.8398 10.8266C10.0479 11.1988 7.91728 13.5066 7.91728 16.261C7.91728 19.2388 10.4888 21.6954 13.648 21.6954C16.8073 21.6954 19.3787 19.3132 19.3787 16.261C19.3787 13.4321 17.1011 11.0499 14.1623 10.8266L16.5134 6.21108H16.5869L17.6889 4.12665Z" fill="#FFDC00"/>
</svg>
