<svg width="28" height="28" viewBox="0 0 28 28" fill="none" xmlns="http://www.w3.org/2000/svg">
<path d="M14 1.75C7.23392 1.75 1.75 7.23392 1.75 14C1.75 20.7661 7.23392 26.25 14 26.25C20.7661 26.25 26.25 20.7661 26.25 14C26.25 7.23392 20.7661 1.75 14 1.75ZM14.2552 24.0062C12.7893 24.2124 10.4026 23.8408 8.78763 22.818C7.37275 21.9237 6.5275 20.8049 5.98238 19.6697C5.425 18.51 5.15958 17.1013 5.75575 17.1707C6.03546 17.2034 6.27433 17.7322 6.81333 18.4202C7.18083 18.8898 7.51975 19.2859 7.77496 19.341C7.88929 19.3655 7.98321 19.3124 8.06488 19.1573C8.218 18.8673 8.42217 18.312 8.78967 17.8649C9.08571 17.5219 9.44504 17.3606 9.65329 18.1997C9.75333 18.6183 9.83296 19.047 9.87992 19.4206C9.94525 19.9494 9.97996 20.2679 10.1637 20.3577C10.3393 20.4435 10.6394 20.3333 11.1213 20.1515C11.4683 20.0229 11.9114 19.8575 12.4749 19.6963C12.9935 19.5472 13.3222 19.6248 12.9894 20.4292C12.8322 20.809 12.6729 21.1275 12.1135 21.936C12.0155 22.0789 12.0339 22.2177 12.1564 22.3402C12.3442 22.526 12.7689 22.7526 13.2385 22.9568C13.6121 23.1201 14.0592 23.259 14.3532 23.3427C14.8146 23.4754 14.7248 23.9388 14.2593 24.0062H14.2552ZM20.5415 21.3725C20.0862 22.1136 19.1287 22.916 17.969 23.4509C17.7934 23.5285 17.6056 23.504 17.5586 23.3631C17.5178 23.2385 17.6158 23.0956 17.7301 22.9609C19.241 21.0009 18.118 19.2042 15.6803 17.8097C13.8795 16.7787 12.7321 16.1866 11.405 15.4047C7.50954 13.1119 6.75821 11.1131 6.60508 9.93096C6.22125 6.94604 8.68963 4.70837 11.2274 4.16937C11.305 4.15304 11.5071 4.12037 11.5745 4.28983C11.6398 4.45929 11.4908 4.58179 11.401 4.63487C10.2658 5.25962 9.15104 6.58671 9.2715 8.06079C9.33888 8.88562 9.69208 10.0677 11.9216 11.6582C13.265 12.6178 14.9147 13.4038 18.2365 15.3965C21.7461 17.5015 21.3459 20.0678 20.5435 21.3745L20.5415 21.3725ZM21.0907 10.1678C20.2904 11.1498 19.488 10.7823 18.8714 9.40217C18.4876 8.54058 17.9813 8.33437 17.624 8.55896C17.234 8.80396 17.3892 9.39604 17.824 10.0759C18.1099 10.521 17.9813 11.0437 17.6852 11.354C17.3728 11.6786 16.8645 11.8073 16.3091 11.6847C15.321 11.4663 14.3491 10.1433 15.0596 7.25637C15.3455 6.09058 14.786 5.59242 14.4328 5.14325C14.2552 4.91867 14.2328 4.78392 14.2981 4.69204C14.3675 4.59404 14.5329 4.58587 14.8228 4.64712C15.2025 4.72675 15.7681 4.92275 16.2254 4.99217C16.5296 5.03912 16.8747 5.05342 17.2381 5.03913C18.2222 5.00238 18.949 5.15346 19.6922 5.52096C20.9519 6.14571 21.0805 7.21963 20.3802 7.13388C20.1373 7.10529 19.8249 6.9195 19.5676 6.79496C19.3941 6.71125 19.245 6.68471 19.1348 6.76433C19.0327 6.83783 18.9878 6.99504 19.0613 7.15021C19.2185 7.47892 19.7473 7.65042 20.466 7.84846C21.7216 8.19554 21.7481 9.35929 21.0907 10.1637V10.1678Z" fill="#0046FF"/>
</svg>
