<svg width="28" height="28" viewBox="0 0 28 28" fill="none" xmlns="http://www.w3.org/2000/svg">
<path fill-rule="evenodd" clip-rule="evenodd" d="M26.7401 13.4721C26.7401 20.2649 21.012 25.7671 13.956 25.7671C6.89325 25.7671 1.1665 20.2649 1.1665 13.4721C1.1665 6.68183 6.89325 1.17578 13.956 1.17578C21.012 1.17578 26.7401 6.68183 26.7401 13.4721Z" fill="#FEFEFE"/>
<path fill-rule="evenodd" clip-rule="evenodd" d="M13.9562 25.1484C20.6856 25.1484 26.1379 19.9056 26.1379 13.4348C26.1379 6.96022 20.6856 1.71484 13.9562 1.71484C7.22417 1.71484 1.77051 6.96022 1.77051 13.4348C1.77051 19.9082 7.22417 25.1484 13.9562 25.1484Z" fill="#0083C9"/>
<mask id="mask0_614_7293" style="mask-type:luminance" maskUnits="userSpaceOnUse" x="1" y="1" width="26" height="25">
<path fill-rule="evenodd" clip-rule="evenodd" d="M13.9538 1.71094C20.6886 1.71094 26.1342 6.95504 26.1342 13.4297C26.1342 19.9043 20.6886 25.1484 13.9538 25.1484C7.21906 25.1484 1.77344 19.9043 1.77344 13.4297" fill="white"/>
</mask>
<g mask="url(#mask0_614_7293)">
<path fill-rule="evenodd" clip-rule="evenodd" d="M14.007 19.0838C19.363 19.0838 23.9545 20.5252 25.9156 22.5633C26.5783 21.1041 26.9384 19.5004 26.9384 17.8099C26.9384 11.0899 21.1447 5.64648 14.007 5.64648C6.87336 5.64648 1.07031 11.0963 1.07031 17.8163C1.07031 19.5004 1.43309 21.1041 2.09973 22.5633C4.05684 20.5252 8.65108 19.0838 14.007 19.0838Z" fill="#0083C9"/>
<path fill-rule="evenodd" clip-rule="evenodd" d="M14.0031 19.1024C19.343 19.1024 23.9225 20.5259 25.8836 22.5423C26.5436 21.1022 26.905 19.51 26.905 17.84C26.905 11.1711 21.1234 5.75195 14.0031 5.75195C6.88684 5.75195 1.10254 11.1711 1.10254 17.84C1.10254 19.5126 1.46531 21.1022 2.12661 22.5423C4.07969 20.5259 8.65921 19.1024 14.0031 19.1024Z" fill="#0084CB"/>
<path fill-rule="evenodd" clip-rule="evenodd" d="M14.0028 19.11C19.328 19.11 23.8928 20.5246 25.8499 22.5256C26.5072 21.097 26.8699 19.5215 26.8699 17.8565C26.8699 11.2426 21.1004 5.85156 14.0028 5.85156C6.90264 5.85156 1.13574 11.2464 1.13574 17.8629C1.13574 19.524 1.49718 21.097 2.15312 22.5256C4.10487 20.5246 8.67501 19.11 14.0028 19.11Z" fill="#0086CC"/>
<path fill-rule="evenodd" clip-rule="evenodd" d="M14.002 19.121C19.3164 19.121 23.8678 20.5253 25.8169 22.5123C26.4742 21.0952 26.8356 19.5312 26.8356 17.8828C26.8356 11.3277 21.0821 5.96094 14.002 5.96094C6.91917 5.96094 1.16699 11.3277 1.16699 17.8905C1.16699 19.5312 1.52441 21.0952 2.18035 22.5123C4.12407 20.5253 8.68886 19.121 14.002 19.121Z" fill="#0088CD"/>
<path fill-rule="evenodd" clip-rule="evenodd" d="M13.9974 19.1364C19.2998 19.1364 23.8432 20.5253 25.7869 22.4995C26.4429 21.0927 26.8016 19.5389 26.8016 17.9033C26.8016 11.4031 21.0642 6.06445 13.9974 6.06445C6.93338 6.06445 1.19727 11.4031 1.19727 17.9135C1.19727 19.5389 1.56004 21.0927 2.20928 22.4995C4.15568 20.5253 8.7004 19.1364 13.9974 19.1364Z" fill="#0089CE"/>
<path fill-rule="evenodd" clip-rule="evenodd" d="M13.9981 19.1485C19.2845 19.1485 23.8118 20.5298 25.7542 22.481C26.4101 21.0895 26.7648 19.5433 26.7648 17.9358C26.7648 11.474 21.0435 6.16602 13.9981 6.16602C6.95149 6.16602 1.23145 11.474 1.23145 17.9358C1.23145 19.5433 1.58753 21.0895 2.24079 22.481C4.17781 20.5298 8.71048 19.1485 13.9981 19.1485Z" fill="#008BCF"/>
<path fill-rule="evenodd" clip-rule="evenodd" d="M13.9951 19.1632C19.2693 19.1632 23.7833 20.5304 25.723 22.4701C26.3749 21.0875 26.7296 19.5567 26.7296 17.9556C26.7296 11.5564 21.027 6.26758 13.9951 6.26758C6.96849 6.26758 1.25781 11.5564 1.25781 17.9582C1.25781 19.5567 1.62059 21.0875 2.26983 22.4701C4.19882 20.5304 8.72078 19.1632 13.9951 19.1632Z" fill="#008DD1"/>
<path fill-rule="evenodd" clip-rule="evenodd" d="M13.9951 19.1734C19.2506 19.1734 23.7632 20.533 25.6895 22.451C26.3374 21.085 26.6948 19.5708 26.6948 17.9812C26.6948 11.6318 21.0069 6.37109 13.9951 6.37109C6.98722 6.37109 1.29395 11.6344 1.29395 17.985C1.29395 19.5708 1.64869 21.0875 2.29659 22.451C4.22559 20.533 8.7355 19.1734 13.9951 19.1734Z" fill="#008FD2"/>
<path fill-rule="evenodd" clip-rule="evenodd" d="M13.9936 19.1875C19.2384 19.1875 23.7349 20.533 25.6612 22.4382C26.3065 21.0786 26.6585 19.5746 26.6585 18.0017C26.6585 11.7123 20.9853 6.47461 13.9936 6.47461C7.00447 6.47461 1.32324 11.7123 1.32324 18.0042C1.32324 19.581 1.682 21.0786 2.32857 22.4382C4.24953 20.533 8.74471 19.1875 13.9936 19.1875Z" fill="#0091D3"/>
<path fill-rule="evenodd" clip-rule="evenodd" d="M13.9883 19.2004C19.2171 19.2004 23.7123 20.5331 25.6265 22.4256C26.2704 21.0737 26.6305 19.5863 26.6305 18.0274C26.6305 11.784 20.9627 6.58594 13.9883 6.58594C7.01662 6.58594 1.35547 11.7866 1.35547 18.0274C1.35547 19.5863 1.71289 21.0737 2.35678 22.4256C4.27506 20.5331 8.76222 19.2004 13.9883 19.2004Z" fill="#0093D4"/>
<path fill-rule="evenodd" clip-rule="evenodd" d="M13.988 19.2163C19.2034 19.2163 23.6812 20.5325 25.5928 22.4083C26.2407 21.0692 26.5887 19.5946 26.5887 18.0472C26.5887 11.8626 20.945 6.6875 13.988 6.6875C7.03376 6.6875 1.38867 11.8626 1.38867 18.0497C1.38867 19.5959 1.73806 21.0692 2.38463 22.4083C4.29756 20.5325 8.774 19.2163 13.988 19.2163Z" fill="#0094D6"/>
<path fill-rule="evenodd" clip-rule="evenodd" d="M13.9834 19.2263C19.1934 19.2263 23.6525 20.5347 25.5614 22.3914C26.2026 21.0689 26.5587 19.6071 26.5587 18.0699C26.5587 11.9351 20.9256 6.79199 13.9834 6.79199C7.05589 6.79199 1.42285 11.9403 1.42285 18.0699C1.42285 19.6071 1.77224 21.0689 2.41747 22.3914C4.32237 20.5347 8.78408 19.2263 13.9834 19.2263Z" fill="#0096D7"/>
<path fill-rule="evenodd" clip-rule="evenodd" d="M13.9832 19.2407C19.1785 19.2407 23.6309 20.5351 25.5264 22.3828C26.1676 21.0641 26.5224 19.6099 26.5224 18.0906C26.5224 12.0134 20.9081 6.89453 13.9832 6.89453C7.06778 6.89453 1.45215 12.0198 1.45215 18.0996C1.45215 19.6125 1.80154 21.0666 2.44141 22.3828C4.34229 20.5351 8.79464 19.2407 13.9832 19.2407Z" fill="#0098D8"/>
<path fill-rule="evenodd" clip-rule="evenodd" d="M13.983 19.2486C19.1609 19.2486 23.5972 20.5379 25.4994 22.3639C26.1326 21.0644 26.486 19.6307 26.486 18.1152C26.486 12.0955 20.8891 6.99707 13.983 6.99707C7.08492 6.99707 1.48535 12.0955 1.48535 18.1191C1.48535 19.6307 1.8334 21.0644 2.4706 22.3639C4.36612 20.5379 8.80643 19.2486 13.983 19.2486Z" fill="#009AD9"/>
<path fill-rule="evenodd" clip-rule="evenodd" d="M13.9828 19.2674C19.1433 19.2674 23.5729 20.5376 25.4684 22.3521C26.0989 21.0576 26.4483 19.6354 26.4483 18.1379C26.4483 12.1731 20.8648 7.09766 13.9828 7.09766C7.10217 7.09766 1.51465 12.1731 1.51465 18.1379C1.51465 19.6354 1.85868 21.0576 2.49722 22.3521C4.39007 20.5376 8.81832 19.2674 13.9828 19.2674Z" fill="#009CDB"/>
<path fill-rule="evenodd" clip-rule="evenodd" d="M13.9789 19.2823C19.1287 19.2823 23.5436 20.5383 25.4297 22.3349C26.0683 21.0584 26.415 19.6452 26.415 18.1629C26.415 12.2505 20.8435 7.20703 13.9789 7.20703C7.12369 7.20703 1.54688 12.2505 1.54688 18.1655C1.54688 19.6452 1.8976 21.0584 2.52944 22.3349C4.41292 20.5383 8.83047 19.2823 13.9789 19.2823Z" fill="#009EDC"/>
<path fill-rule="evenodd" clip-rule="evenodd" d="M13.9789 19.2931C19.118 19.2931 23.5194 20.5377 25.3989 22.3177C26.0348 21.0526 26.3841 19.6496 26.3841 18.184C26.3841 12.3252 20.8247 7.30859 13.9789 7.30859C7.13571 7.30859 1.57764 12.3278 1.57764 18.184C1.57764 19.6496 1.92435 21.0552 2.55887 22.3177C4.43967 20.5377 8.84784 19.2931 13.9789 19.2931Z" fill="#00A0DD"/>
<path fill-rule="evenodd" clip-rule="evenodd" d="M13.9775 19.3078C19.0965 19.3078 23.4953 20.5447 25.3708 22.3042C25.9999 21.052 26.3493 19.6617 26.3493 18.2114C26.3493 12.4012 20.8086 7.41016 13.9775 7.41016C7.15308 7.41016 1.6084 12.4012 1.6084 18.2114C1.6084 19.6617 1.95779 21.052 2.58561 22.3042C4.46642 20.5447 8.8612 19.3078 13.9775 19.3078Z" fill="#00A2DE"/>
<path fill-rule="evenodd" clip-rule="evenodd" d="M13.9726 19.3203C19.0836 19.3203 23.4636 20.5457 25.3378 22.2951C25.9669 21.0454 26.3123 19.6717 26.3123 18.2291C26.3123 12.4803 20.7864 7.51855 13.9726 7.51855C7.16425 7.51855 1.63965 12.4803 1.63965 18.2329C1.63965 19.6717 1.98904 21.0454 2.61552 22.2951C4.48696 20.5457 8.86969 19.3203 13.9726 19.3203Z" fill="#00A4E0"/>
<path fill-rule="evenodd" clip-rule="evenodd" d="M13.9724 19.3324C19.0673 19.3324 23.4406 20.5451 25.304 22.2778C25.9359 21.0421 26.2759 19.6813 26.2759 18.2553C26.2759 12.5627 20.77 7.62012 13.9724 7.62012C7.18407 7.62012 1.67285 12.5627 1.67285 18.2553C1.67285 19.6775 2.01956 21.0447 2.64739 22.2778C4.51213 20.5451 8.88683 19.3324 13.9724 19.3324Z" fill="#00A6E1"/>
<path fill-rule="evenodd" clip-rule="evenodd" d="M13.9726 19.3427C19.0474 19.3427 23.4087 20.5502 25.2694 22.2586C25.9013 21.0383 26.248 19.6966 26.248 18.2757C26.248 12.6342 20.7488 7.72363 13.9726 7.72363C7.20302 7.72363 1.70117 12.6342 1.70117 18.2757C1.70117 19.6966 2.04922 21.0383 2.67571 22.2586C4.53509 20.5502 8.89909 19.3427 13.9726 19.3427Z" fill="#00A8E2"/>
<path fill-rule="evenodd" clip-rule="evenodd" d="M13.9696 19.3584C19.0337 19.3584 23.383 20.5506 25.237 22.2437C25.8689 21.0336 26.2076 19.7021 26.2076 18.3029C26.2076 12.7074 20.7258 7.83008 13.9696 7.83008C7.22016 7.83008 1.73438 12.7138 1.73438 18.3029C1.73438 19.6996 2.08109 21.0362 2.70088 22.2437C4.55893 20.5506 8.90686 19.3584 13.9696 19.3584Z" fill="#00AAE4"/>
<path fill-rule="evenodd" clip-rule="evenodd" d="M13.9696 19.3696C19.0203 19.3696 23.3549 20.5503 25.2076 22.2332C25.8327 21.0333 26.1687 19.7082 26.1687 18.3218C26.1687 12.7864 20.7097 7.93457 13.9696 7.93457C7.2362 7.93457 1.76514 12.7889 1.76514 18.3218C1.76514 19.7082 2.10917 21.0333 2.73432 22.2332C4.58299 20.5503 8.91888 19.3696 13.9696 19.3696Z" fill="#00ADE5"/>
<path fill-rule="evenodd" clip-rule="evenodd" d="M13.9657 19.3805C19.0084 19.3805 23.3322 20.5535 25.1769 22.2133C25.794 21.0314 26.138 19.7204 26.138 18.3454C26.138 12.8598 20.687 8.03613 13.9657 8.03613C7.2537 8.03613 1.79736 12.8662 1.79736 18.3454C1.79736 19.7178 2.1414 21.0327 2.76387 22.2133C4.60585 20.5535 8.93103 19.3805 13.9657 19.3805Z" fill="#00AFE6"/>
<path fill-rule="evenodd" clip-rule="evenodd" d="M13.9655 19.3987C18.9868 19.3987 23.3053 20.5551 25.1419 22.2022C25.759 21.0266 26.0991 19.7245 26.0991 18.37C26.0991 12.9445 20.6655 8.13867 13.9655 8.13867C7.26963 8.13867 1.83203 12.9445 1.83203 18.37C1.83203 19.7245 2.16803 21.033 2.78917 22.2022C4.62981 20.5551 8.94561 19.3987 13.9655 19.3987Z" fill="#00B1E8"/>
<path fill-rule="evenodd" clip-rule="evenodd" d="M13.9656 19.406C18.9762 19.406 23.2733 20.5561 25.1126 22.1827C25.7324 21.0263 26.0684 19.7383 26.0684 18.3902C26.0684 13.0158 20.6455 8.24316 13.9656 8.24316C7.28577 8.24316 1.85889 13.0158 1.85889 18.3902C1.85889 19.7383 2.19756 21.0263 2.8187 22.1827C4.65532 20.5561 8.95641 19.406 13.9656 19.406Z" fill="#00B3E9"/>
<path fill-rule="evenodd" clip-rule="evenodd" d="M13.9632 19.423C18.955 19.423 23.2481 20.5552 25.078 22.1729C25.6965 21.0216 26.0351 19.745 26.0351 18.4187C26.0351 13.0966 20.631 8.34961 13.9632 8.34961C7.30475 8.34961 1.89795 13.0966 1.89795 18.4187C1.89795 19.745 2.23395 21.0254 2.84705 22.1729C4.681 20.5552 8.96869 19.423 13.9632 19.423Z" fill="#00B5EA"/>
<path fill-rule="evenodd" clip-rule="evenodd" d="M13.9561 19.4322C18.9426 19.4322 23.2209 20.5567 25.0481 22.1591C25.6639 21.0154 25.9999 19.7568 25.9999 18.4394C25.9999 13.1748 20.6105 8.44824 13.9561 8.44824C7.32309 8.44824 1.92432 13.1748 1.92432 18.4394C1.92432 19.7568 2.26032 21.0231 2.87877 22.1591C4.70068 20.5567 8.98301 19.4322 13.9561 19.4322Z" fill="#00B8EC"/>
<path fill-rule="evenodd" clip-rule="evenodd" d="M13.9564 19.4503C18.9255 19.4503 23.1945 20.5556 25.0124 22.1426C25.6295 21.0117 25.9668 19.771 25.9668 18.4613C25.9668 13.2529 20.5935 8.55957 13.9564 8.55957C7.33683 8.55957 1.95947 13.2529 1.95947 18.4613C1.95947 19.7684 2.29012 21.0143 2.90322 22.1426C4.7278 20.5556 8.99006 19.4503 13.9564 19.4503Z" fill="#03BAED"/>
<path fill-rule="evenodd" clip-rule="evenodd" d="M13.9563 19.4621C18.9093 19.4621 23.1662 20.5559 24.9814 22.1212C25.5932 21.0121 25.9278 19.7777 25.9278 18.4884C25.9278 13.3312 20.5719 8.66211 13.9563 8.66211C7.35006 8.66211 1.98877 13.3312 1.98877 18.4884C1.98877 19.7777 2.32343 21.0121 2.93653 22.1212C4.7504 20.5559 9.00061 19.4621 13.9563 19.4621Z" fill="#12BCEF"/>
<path fill-rule="evenodd" clip-rule="evenodd" d="M13.9566 19.4774C18.8936 19.4774 23.1425 20.5585 24.9483 22.1123C25.5614 21.0031 25.8947 19.7905 25.8947 18.5101C25.8947 13.4053 20.5508 8.76562 13.9566 8.76562C7.37049 8.76562 2.02393 13.4053 2.02393 18.5101C2.02393 19.7867 2.35323 21.0121 2.96232 22.1123C4.77619 20.5585 9.01837 19.4774 13.9566 19.4774Z" fill="#1BBFF0"/>
<path fill-rule="evenodd" clip-rule="evenodd" d="M13.9532 19.4871C18.8794 19.4871 23.1096 20.5604 24.9167 22.0925C25.5258 20.9987 25.8551 19.7989 25.8551 18.53C25.8551 13.4827 20.53 8.87109 13.9532 8.87109C7.38177 8.87109 2.05127 13.4827 2.05127 18.53C2.05127 19.795 2.38325 21.0025 2.99368 22.0925C4.79818 20.5604 9.02831 19.4871 13.9532 19.4871Z" fill="#20C3F3"/>
<path fill-rule="evenodd" clip-rule="evenodd" d="M13.9536 19.5144C18.8692 19.5144 23.1033 20.5839 24.9065 22.1083C25.5115 21.026 25.8395 19.8262 25.8395 18.5688C25.8395 13.5496 20.5237 8.96484 13.9536 8.96484C7.39425 8.96484 2.07178 13.5496 2.07178 18.5688C2.07178 19.8236 2.40242 21.026 3.00883 22.1083C4.80798 20.5839 9.03543 19.5144 13.9536 19.5144Z" fill="#32C5F3"/>
<path fill-rule="evenodd" clip-rule="evenodd" d="M13.9562 19.5446C18.8664 19.5446 23.0871 20.6077 24.8876 22.1219C25.4927 21.0435 25.8274 19.8551 25.8274 18.608C25.8274 13.622 20.5129 9.06152 13.9562 9.06152C7.40085 9.06152 2.08105 13.622 2.08105 18.608C2.08105 19.8526 2.41706 21.046 3.02079 22.1219C4.81859 20.6077 9.04203 19.5446 13.9562 19.5446Z" fill="#3FC6F3"/>
<path fill-rule="evenodd" clip-rule="evenodd" d="M13.9562 19.5745C18.8556 19.5745 23.0764 20.6274 24.8715 22.1339C25.4766 21.0644 25.8112 19.8786 25.8112 18.6391C25.8112 13.6864 20.5048 9.15527 13.9562 9.15527C7.41283 9.15527 2.10107 13.6864 2.10107 18.6391C2.10107 19.8786 2.43172 21.0644 3.03545 22.1339C4.83727 20.6274 9.05 19.5745 13.9562 19.5745Z" fill="#4AC8F4"/>
<path fill-rule="evenodd" clip-rule="evenodd" d="M13.9561 19.6114C18.8542 19.6114 23.0629 20.6541 24.8554 22.1466C25.4631 21.086 25.7938 19.9117 25.7938 18.6773C25.7938 13.7616 20.494 9.25098 13.9561 9.25098C7.42213 9.25098 2.11572 13.7616 2.11572 18.6773C2.11572 19.9078 2.44771 21.0885 3.04876 22.1466C4.84523 20.6541 9.05394 19.6114 13.9561 19.6114Z" fill="#54C9F4"/>
<path fill-rule="evenodd" clip-rule="evenodd" d="M13.9564 19.6352C18.8478 19.6352 23.0512 20.6715 24.8436 22.1615C25.4447 21.1009 25.7807 19.9342 25.7807 18.7127C25.7807 13.8276 20.4863 9.34766 13.9564 9.34766C7.42912 9.34766 2.13477 13.8276 2.13477 18.7127C2.13477 19.9342 2.46273 21.1034 3.0678 22.1615C4.86159 20.6715 9.05558 19.6352 13.9564 19.6352Z" fill="#5CCBF4"/>
<path fill-rule="evenodd" clip-rule="evenodd" d="M13.9564 19.6657C18.8425 19.6657 23.0405 20.6969 24.8289 22.1727C25.43 21.1186 25.7593 19.9634 25.7593 18.7508C25.7593 13.8977 20.4797 9.43945 13.9564 9.43945C7.43587 9.43945 2.15088 13.8977 2.15088 18.7508C2.15088 19.9634 2.47885 21.1262 3.0799 22.1727C4.86968 20.6969 9.0717 19.6657 13.9564 19.6657Z" fill="#64CDF5"/>
<path fill-rule="evenodd" clip-rule="evenodd" d="M13.9567 19.6994C18.8361 19.6994 23.0314 20.7204 24.8132 22.1822C25.4169 21.1408 25.7475 19.992 25.7475 18.7832C25.7475 13.9633 20.4652 9.5332 13.9567 9.5332C7.45222 9.5332 2.16455 13.9697 2.16455 18.7832C2.16455 19.992 2.49386 21.1408 3.09357 22.1822C4.88603 20.7204 9.076 19.6994 13.9567 19.6994Z" fill="#6CCEF5"/>
<path fill-rule="evenodd" clip-rule="evenodd" d="M13.956 19.7239C18.83 19.7239 23.016 20.7436 24.8018 22.2016C25.3988 21.164 25.7348 20.0178 25.7348 18.8218C25.7348 14.0339 20.4578 9.63184 13.956 9.63184C7.45554 9.63184 2.17725 14.0339 2.17725 18.8218C2.17725 20.0178 2.51191 21.1666 3.10761 22.2016C4.89604 20.7436 9.082 19.7239 13.956 19.7239Z" fill="#73D0F5"/>
<path fill-rule="evenodd" clip-rule="evenodd" d="M13.9564 19.7544C18.8184 19.7544 23.0004 20.7639 24.7834 22.2117C25.3872 21.1869 25.7165 20.0483 25.7165 18.8549C25.7165 14.1027 20.4516 9.72754 13.9564 9.72754C7.46534 9.72754 2.19775 14.1027 2.19775 18.8549C2.19775 20.0483 2.52706 21.1869 3.12276 22.2117C4.90852 20.7639 9.08644 19.7544 13.9564 19.7544Z" fill="#7AD2F6"/>
<path fill-rule="evenodd" clip-rule="evenodd" d="M13.9561 19.7866C18.8181 19.7866 22.9907 20.7897 24.7671 22.226C25.3708 21.1999 25.6974 20.0754 25.6974 18.8947C25.6974 14.1745 20.4419 9.82617 13.9561 9.82617C7.47572 9.82617 2.20947 14.1745 2.20947 18.8947C2.20947 20.0754 2.54414 21.2024 3.1385 22.226C4.9189 20.7897 9.09147 19.7905 13.9561 19.7866Z" fill="#81D3F6"/>
<path fill-rule="evenodd" clip-rule="evenodd" d="M13.9562 19.8094C18.8101 19.8094 22.976 20.8163 24.7577 22.2385C25.3481 21.2214 25.6801 20.1033 25.6801 18.9303C25.6801 14.2408 20.4339 9.91797 13.9562 9.91797C7.48248 9.91797 2.23096 14.2408 2.23096 18.9303C2.23096 20.1033 2.55893 21.2252 3.15463 22.2385C4.93101 20.8163 9.09957 19.812 13.9562 19.8094Z" fill="#87D5F6"/>
<path fill-rule="evenodd" clip-rule="evenodd" d="M13.9566 19.8451C18.8025 19.8451 22.9657 20.8328 24.7407 22.2473C25.3378 21.2443 25.6684 20.1326 25.6684 18.9685C25.6684 14.3045 20.4236 10.0137 13.9566 10.0137C7.49358 10.0137 2.24072 14.3045 2.24072 18.9685C2.24072 20.1326 2.57137 21.2468 3.16573 22.2473C4.94479 20.8328 9.10933 19.8451 13.9566 19.8451Z" fill="#8ED7F7"/>
<path fill-rule="evenodd" clip-rule="evenodd" d="M13.956 19.8717C18.7966 19.8717 22.9518 20.8582 24.7241 22.2625C25.3198 21.2607 25.6505 20.1579 25.6505 19.0002C25.6505 14.3784 20.415 10.1055 13.956 10.1055C7.50107 10.1055 2.26025 14.3784 2.26025 19.0002C2.26025 20.1579 2.58688 21.2632 3.17991 22.2625C4.95629 20.8582 9.11548 19.8717 13.956 19.8717Z" fill="#94D9F7"/>
<path fill-rule="evenodd" clip-rule="evenodd" d="M13.9563 19.9062C18.7889 19.9062 22.9414 20.8786 24.7084 22.2778C25.3041 21.2811 25.6387 20.1848 25.6387 19.0399C25.6387 14.4475 20.4073 10.209 13.9563 10.209C7.50672 10.209 2.2793 14.45 2.2793 19.0399C2.2793 20.1848 2.60325 21.2811 3.20029 22.2778C4.97266 20.8786 9.12247 19.9062 13.9563 19.9062Z" fill="#9ADBF7"/>
<path fill-rule="evenodd" clip-rule="evenodd" d="M13.9564 19.9347C18.7862 19.9347 22.9253 20.9033 24.6937 22.2948C25.2867 21.302 25.6173 20.2146 25.6173 19.0722C25.6173 14.5117 20.3926 10.2988 13.9564 10.2988C7.51613 10.2988 2.29004 14.5117 2.29004 19.0722C2.29004 20.2184 2.62202 21.3045 3.20969 22.2948C4.97939 20.9033 9.12786 19.9347 13.9564 19.9347Z" fill="#A0DDF8"/>
<path fill-rule="evenodd" clip-rule="evenodd" d="M13.9564 19.9647C18.7756 19.9647 22.912 20.9281 24.6857 22.3056C25.2694 21.3242 25.5973 20.2432 25.5973 19.1111C25.5973 14.5902 20.3873 10.3965 13.9564 10.3965C7.52556 10.3965 2.31152 14.5915 2.31152 19.1111C2.31152 20.2432 2.63414 21.3242 3.22448 22.3056C4.99418 20.9281 9.13462 19.9647 13.9564 19.9647Z" fill="#A6DEF8"/>
<path fill-rule="evenodd" clip-rule="evenodd" d="M13.9566 19.9957C18.7704 19.9957 22.9055 20.9477 24.6685 22.3137C25.2588 21.3413 25.5881 20.2692 25.5881 19.1485C25.5881 14.652 20.3768 10.4863 13.9566 10.4863C7.53375 10.4863 2.32373 14.652 2.32373 19.1422C2.32373 20.2692 2.65036 21.3451 3.24606 22.3137C5.00772 20.9477 9.14147 19.9957 13.9566 19.9957Z" fill="#ACE0F9"/>
<path fill-rule="evenodd" clip-rule="evenodd" d="M13.9564 20.0239C18.7622 20.0239 22.8892 20.9707 24.6536 22.3316C25.2372 21.363 25.5665 20.2999 25.5665 19.1818C25.5665 14.7274 20.3712 10.5898 13.9564 10.5898C7.5416 10.5898 2.34229 14.7274 2.34229 19.1818C2.34229 20.2999 2.66892 21.3655 3.25658 22.3316C5.01825 20.9707 9.14798 20.0239 13.9564 20.0239Z" fill="#B2E2F9"/>
<path fill-rule="evenodd" clip-rule="evenodd" d="M13.9563 20.0588C18.7554 20.0588 22.8771 20.9929 24.6334 22.3448C25.2237 21.3826 25.553 20.3272 25.553 19.2168C25.553 14.7892 20.3604 10.6836 13.9563 10.6836C7.55223 10.6836 2.35693 14.793 2.35693 19.2168C2.35693 20.3297 2.68089 21.3826 3.26989 22.3448C5.03155 20.9929 9.15058 20.0588 13.9563 20.0588Z" fill="#B8E4F9"/>
<path fill-rule="evenodd" clip-rule="evenodd" d="M13.9563 20.0865C18.7486 20.0865 22.865 21.0219 24.6199 22.3559C25.2089 21.4039 25.5382 20.3523 25.5382 19.2534C25.5382 14.859 20.355 10.7803 13.9563 10.7803C7.5642 10.7803 2.37158 14.8616 2.37158 19.2534C2.37158 20.3548 2.69955 21.4039 3.28722 22.3559C5.04353 21.0219 9.16255 20.0865 13.9563 20.0865Z" fill="#BDE6FA"/>
<path fill-rule="evenodd" clip-rule="evenodd" d="M13.9562 20.1139C18.7419 20.1139 22.8502 21.0428 24.6025 22.3705C25.1928 21.4211 25.5194 20.3848 25.5194 19.2935C25.5194 14.9324 20.3456 10.8779 13.9562 10.8779C7.56548 10.8779 2.3916 14.9324 2.3916 19.2935C2.3916 20.3886 2.71288 21.4211 3.29787 22.3705C5.05551 21.0428 9.16785 20.1203 13.9562 20.1139Z" fill="#C3E8FA"/>
<path fill-rule="evenodd" clip-rule="evenodd" d="M13.9561 20.1434C18.7351 20.1434 22.8407 21.0647 24.589 22.3834C25.1807 21.4442 25.5073 20.4118 25.5073 19.3295C25.5073 15.0028 20.3348 10.9727 13.9561 10.9727C7.58013 10.9727 2.40625 15.0028 2.40625 19.3295C2.40625 20.4143 2.7302 21.4442 3.31519 22.3834C5.06481 21.0647 9.17446 20.1473 13.9561 20.1434Z" fill="#C9EAFA"/>
<path fill-rule="evenodd" clip-rule="evenodd" d="M13.9562 20.1733C18.7285 20.1733 22.8328 21.0895 24.5743 22.3916C25.1607 21.4639 25.4886 20.4391 25.4886 19.3645C25.4886 15.0698 20.3255 11.0664 13.9562 11.0664C7.58553 11.0664 2.42236 15.0698 2.42236 19.3645C2.42236 20.4416 2.74364 21.4639 3.32863 22.3916C5.08226 21.0895 9.17853 20.1733 13.9562 20.1733Z" fill="#CEECFB"/>
<path fill-rule="evenodd" clip-rule="evenodd" d="M13.9562 20.2057C18.7258 20.2057 22.8141 21.1104 24.5637 22.4061C25.1487 21.4861 25.4753 20.4664 25.4753 19.3981C25.4753 15.1392 20.3188 11.1602 13.9562 11.1602C7.59361 11.1602 2.43848 15.1392 2.43848 19.3981C2.43848 20.4702 2.76377 21.4861 3.3434 22.4061C5.09436 21.1104 9.18928 20.2057 13.9562 20.2057Z" fill="#D4EEFB"/>
<path fill-rule="evenodd" clip-rule="evenodd" d="M13.9562 20.232C18.7192 20.232 22.8007 21.1329 24.5503 22.4171C25.1313 21.5047 25.4606 20.4927 25.4606 19.436C25.4606 15.209 20.3081 11.2529 13.9562 11.2529C7.60034 11.2529 2.44922 15.209 2.44922 19.4309C2.44922 20.4953 2.77317 21.5098 3.36084 22.4171C5.10644 21.1329 9.19333 20.2372 13.9562 20.232Z" fill="#D9F0FB"/>
<path fill-rule="evenodd" clip-rule="evenodd" d="M13.9561 20.2645C18.7123 20.2645 22.7925 21.1602 24.5327 22.4354C25.1124 21.5231 25.4403 20.5251 25.4403 19.4722C25.4403 15.2798 20.2999 11.3467 13.9561 11.3467C7.60953 11.3467 2.46777 15.2798 2.46777 19.4684C2.46777 20.5251 2.79173 21.5231 3.37404 22.4354C5.1183 21.1602 9.20386 20.2645 13.9561 20.2645Z" fill="#DFF2FC"/>
<path fill-rule="evenodd" clip-rule="evenodd" d="M13.9565 20.2916C18.7033 20.2916 22.7809 21.181 24.5131 22.4434C25.0954 21.5439 25.4207 20.5536 25.4207 19.5058C25.4207 15.3452 20.2883 11.4492 13.9565 11.4492C7.62066 11.4492 2.48828 15.3452 2.48828 19.5058C2.48828 20.5548 2.80822 21.5439 3.38518 22.4434C5.12944 21.181 9.21232 20.2916 13.9565 20.2916Z" fill="#E5F4FC"/>
<path fill-rule="evenodd" clip-rule="evenodd" d="M13.9564 20.3263C18.6979 20.3263 22.766 21.1991 24.5009 22.459C25.0819 21.5658 25.4099 20.5806 25.4099 19.5431C25.4099 15.4132 20.2775 11.5479 13.9564 11.5479C7.6286 11.5479 2.49756 15.4132 2.49756 19.5405C2.49756 20.5832 2.82285 21.5658 3.39981 22.459C5.14407 21.1991 9.21758 20.3263 13.9564 20.3263Z" fill="#EAF6FD"/>
<path fill-rule="evenodd" clip-rule="evenodd" d="M13.9562 20.352C18.691 20.352 22.7525 21.2247 24.4887 22.4693C25.067 21.5812 25.3923 20.6063 25.3923 19.5802C25.3923 15.4849 20.2706 11.6387 13.9562 11.6387C7.63645 11.6387 2.51611 15.4849 2.51611 19.5802C2.51611 20.6076 2.83739 21.5812 3.41569 22.4693C5.15593 21.2247 9.22275 20.352 13.9562 20.352Z" fill="#F0F8FD"/>
<path fill-rule="evenodd" clip-rule="evenodd" d="M13.9564 20.3851C18.6818 20.3851 22.7353 21.2476 24.4742 22.4794C25.0525 21.6067 25.3791 20.633 25.3791 19.6171C25.3791 15.5512 20.2588 11.7344 13.9564 11.7344C7.64599 11.7344 2.53369 15.5512 2.53369 19.6133C2.53369 20.6407 2.85631 21.6067 3.42925 22.4794C5.16949 21.2476 9.22828 20.3889 13.9564 20.3851Z" fill="#F6FBFD"/>
<path fill-rule="evenodd" clip-rule="evenodd" d="M13.9563 20.4134C18.6804 20.4134 22.7258 21.2733 24.4594 22.4987C25.0336 21.6209 25.3589 20.66 25.3589 19.6492C25.3589 15.6242 20.2573 11.8291 13.9563 11.8291C7.65397 11.8291 2.55371 15.6242 2.55371 19.6492C2.55371 20.6664 2.87231 21.6209 3.44659 22.4987C5.18416 21.2733 9.23089 20.4134 13.9563 20.4134Z" fill="#FEFEFE"/>
</g>
<path fill-rule="evenodd" clip-rule="evenodd" d="M13.9563 16.3887C9.82924 16.3887 5.99 17.0646 2.82275 18.198C4.72497 22.3011 8.98991 25.148 13.9563 25.148C18.9227 25.148 23.1916 22.2985 25.0898 18.198C21.9253 17.0646 18.0874 16.3887 13.9563 16.3887Z" fill="#0083C9"/>
</svg>
