<svg width="23" height="22" viewBox="0 0 23 22" fill="none" xmlns="http://www.w3.org/2000/svg">
<path d="M16.1839 10.0833V2.75H7.01725V6.41667H3.35059V19.25H10.6839V15.5833H12.5173V19.25H19.8506V10.0833H16.1839ZM7.01725 17.4167H5.18392V15.5833H7.01725V17.4167ZM7.01725 13.75H5.18392V11.9167H7.01725V13.75ZM7.01725 10.0833H5.18392V8.25H7.01725V10.0833ZM10.6839 13.75H8.85059V11.9167H10.6839V13.75ZM10.6839 10.0833H8.85059V8.25H10.6839V10.0833ZM10.6839 6.41667H8.85059V4.58333H10.6839V6.41667ZM14.3506 13.75H12.5173V11.9167H14.3506V13.75ZM14.3506 10.0833H12.5173V8.25H14.3506V10.0833ZM14.3506 6.41667H12.5173V4.58333H14.3506V6.41667ZM18.0173 17.4167H16.1839V15.5833H18.0173V17.4167ZM18.0173 13.75H16.1839V11.9167H18.0173V13.75Z" fill="#962E01"/>
</svg>
