<svg width="23" height="23" viewBox="0 0 23 23" fill="none" xmlns="http://www.w3.org/2000/svg">
<path d="M12.5189 8.22161C13.298 7.94661 13.9214 7.32328 14.1964 6.54411H17.1022L14.3522 12.9608C14.3522 14.4824 15.7914 15.7108 17.5605 15.7108C19.3297 15.7108 20.7689 14.4824 20.7689 12.9608L18.0189 6.54411H19.8522V4.71077H14.1964C13.8205 3.63827 12.803 2.87744 11.6022 2.87744C10.4014 2.87744 9.38388 3.63827 9.00805 4.71077H3.35221V6.54411H5.18555L2.43555 12.9608C2.43555 14.4824 3.87471 15.7108 5.64388 15.7108C7.41305 15.7108 8.85221 14.4824 8.85221 12.9608L6.10221 6.54411H9.00805C9.28305 7.32328 9.90638 7.94661 10.6855 8.22161V18.4608H2.43555V20.2941H20.7689V18.4608H12.5189V8.22161ZM19.2747 12.9608H15.8464L17.5605 8.96411L19.2747 12.9608ZM7.35805 12.9608H3.92971L5.64388 8.96411L7.35805 12.9608ZM11.6022 6.54411C11.098 6.54411 10.6855 6.13161 10.6855 5.62744C10.6855 5.12328 11.098 4.71077 11.6022 4.71077C12.1064 4.71077 12.5189 5.12328 12.5189 5.62744C12.5189 6.13161 12.1064 6.54411 11.6022 6.54411Z" fill="#962E01"/>
</svg>
