<svg width="20" height="21" viewBox="0 0 20 21" fill="none" xmlns="http://www.w3.org/2000/svg">
<mask id="mask0_25_3977" style="mask-type:alpha" maskUnits="userSpaceOnUse" x="0" y="0" width="20" height="21">
<rect y="0.5" width="20" height="20" fill="#D9D9D9"/>
</mask>
<g mask="url(#mask0_25_3977)">
<path d="M10 20.5C15.5228 20.5 20 16.0228 20 10.5C20 4.97715 15.5228 0.5 10 0.5C4.47715 0.5 0 4.97715 0 10.5C0 16.0228 4.47715 20.5 10 20.5Z" fill="#962E01"/>
<path d="M8.22917 12.5695L13.7292 6.73348C13.8819 6.57075 14.0556 6.49309 14.25 6.50048C14.4444 6.50788 14.6181 6.59294 14.7708 6.75567C14.9236 6.9184 15 7.10331 15 7.31042C15 7.51753 14.9236 7.70244 14.7708 7.86517L8.77083 14.2559C8.61806 14.4186 8.44097 14.5 8.23958 14.5C8.03819 14.5 7.86111 14.4186 7.70833 14.2559L5.22917 11.6153C5.07639 11.4526 5 11.2676 5 11.0605C5 10.8534 5.07639 10.6685 5.22917 10.5058C5.38194 10.3431 5.55556 10.2617 5.75 10.2617C5.94444 10.2617 6.11806 10.3431 6.27083 10.5058L8.22917 12.5695Z" fill="white"/>
</g>
</svg>
